<svg viewBox="0 0 24 24" xmlns="http://www.w3.org/2000/svg" xmlns:xlink="http://www.w3.org/1999/xlink" width="24.000000" height="24.000000" fill="none">
	<rect id="Icon-Burger-menu-hover" width="24.000000" height="24.000000" x="0.000000" y="0.000000" fill="rgb(255,255,255)" fill-opacity="0" />
	<path id="Vector" d="M0 0L24 0L24 24L0 24L0 0Z" fill-rule="nonzero" />
	<path id="Vector" d="M4 18L11 18C11.5523 18 12 17.5523 12 17C12 16.4477 11.5523 16 11 16L4 16C3.44772 16 3 16.4477 3 17C3 17.5523 3.44772 18 4 18ZM4 13L20 13C20.5523 13 21 12.5523 21 12C21 11.4477 20.5523 11 20 11L4 11C3.44772 11 3 11.4477 3 12C3 12.5523 3.44772 13 4 13ZM4 6C3.44772 6 3 6.44772 3 7C3 7.55228 3.44772 8 4 8L15 8C15.5523 8 16 7.55228 16 7C16 6.44772 15.5523 6 15 6L4 6Z" fill="rgb(255,255,255)" fill-rule="nonzero" />
</svg>
